<?xml version="1.0" encoding="UTF-8" standalone="no"?>
<!-- Created with Inkscape (http://www.inkscape.org/) -->

<svg
   width="210mm"
   height="297mm"
   viewBox="0 0 210 297"
   version="1.1"
   id="svg1"
   xml:space="preserve"
   inkscape:export-filename="primor logo.png"
   inkscape:export-xdpi="96"
   inkscape:export-ydpi="96"
   xmlns:inkscape="http://www.inkscape.org/namespaces/inkscape"
   xmlns:sodipodi="http://sodipodi.sourceforge.net/DTD/sodipodi-0.dtd"
   xmlns="http://www.w3.org/2000/svg"
   xmlns:svg="http://www.w3.org/2000/svg"><sodipodi:namedview
     id="namedview1"
     pagecolor="#505050"
     bordercolor="#eeeeee"
     borderopacity="1"
     inkscape:showpageshadow="0"
     inkscape:pageopacity="0"
     inkscape:pagecheckerboard="0"
     inkscape:deskcolor="#505050"
     inkscape:document-units="mm"><inkscape:page
       x="0"
       y="0"
       width="210"
       height="297"
       id="page2"
       margin="0"
       bleed="0" /></sodipodi:namedview><defs
     id="defs1"><linearGradient
       id="swatch21"
       inkscape:swatch="solid"><stop
         style="stop-color:#ffffff;stop-opacity:1;"
         offset="0"
         id="stop21" /></linearGradient><linearGradient
       id="swatch3"
       inkscape:swatch="solid"><stop
         style="stop-color:#000000;stop-opacity:1;"
         offset="0"
         id="stop3" /></linearGradient></defs><g
     inkscape:label="Camada 1"
     inkscape:groupmode="layer"
     id="layer1"><g
       id="g21"><path
         style="fill:#d0a352"
         d="m 102.44665,186.112 c -6.061189,-0.87252 -10.459505,-2.25317 -14.948956,-4.69255 -2.321603,-1.26147 -2.931058,-1.6741 -5.438686,-3.68228 -2.090575,-1.67419 -5.563709,-5.26693 -6.703368,-6.93421 -2.546503,-3.72546 -5.440503,-10.05157 -5.965609,-13.04046 -0.596561,-3.39561 -1.022509,-9.31596 -0.85365,-11.8651 0.190314,-2.87302 1.07966,-7.25292 1.73978,-8.56816 0.264132,-0.52626 0.679001,-1.55215 0.92193,-2.27975 0.995656,-2.98212 1.907843,-2.96244 1.654407,0.0357 -0.228951,2.70849 0.484886,8.88727 1.420422,12.2948 1.734464,6.3175 3.855241,11.26588 7.078718,16.51668 2.363724,3.85033 7.080091,8.87977 11.386436,12.14227 1.687487,1.27844 2.83132,2.01034 7.776466,4.97589 1.57802,0.94631 4.52493,2.23491 8.6113,3.76545 3.28796,1.23149 2.87767,1.73375 -1.38752,1.69854 -1.60073,-0.0132 -3.98198,-0.17829 -5.29167,-0.36682 z m 7.9375,-7.26406 c -1.30968,-0.28533 -3.21468,-0.81108 -4.23333,-1.16834 -1.01865,-0.35726 -2.19906,-0.72619 -2.62315,-0.81984 -2.22187,-0.4907 -8.723675,-4.42784 -12.073922,-7.31131 -1.8065,-1.5548 -3.215762,-3.17699 -5.936875,-6.83386 -1.76515,-2.37217 -1.613945,-3.05018 0.320936,-1.4391 1.732027,1.44217 2.513112,1.95787 4.967176,3.27952 2.993539,1.61219 4.341493,2.25267 5.556251,2.64005 0.582083,0.18562 1.475052,0.54528 1.984375,0.79924 0.509323,0.25396 2.890569,0.96796 5.291669,1.58667 3.92768,1.01207 4.76256,1.13771 8.32248,1.2524 4.65301,0.14991 6.98515,-0.12145 13.24106,-1.54067 3.9341,-0.8925 7.08347,-1.91788 8.75642,-2.85094 0.2772,-0.1546 1.47305,-0.68809 2.65745,-1.18554 2.19203,-0.92065 3.48246,-1.71256 6.31321,-3.87428 0.87313,-0.66676 2.2093,-1.60612 2.96927,-2.08746 0.75996,-0.48134 2.0336,-1.57923 2.8303,-2.43976 0.7967,-0.86054 1.51436,-1.56461 1.5948,-1.56461 0.2587,0 0.15563,1.02131 -0.12028,1.19183 -0.14659,0.0906 -0.48787,0.60365 -0.75839,1.1401 -2.61307,5.18179 -4.21076,7.37025 -8.18087,11.20588 -2.20846,2.13364 -3.58147,3.18959 -6.14409,4.72524 -3.71531,2.2264 -4.53698,2.6312 -7.53657,3.71292 -5.42306,1.95568 -12.49598,2.60625 -17.19792,1.58186 z M 64.562697,166.33647 c -0.29571,-0.32742 -0.829287,-1.19063 -1.185727,-1.91823 -0.35644,-0.72761 -1.039155,-2.09682 -1.517145,-3.04271 -0.477991,-0.94589 -1.254757,-2.4937 -1.726148,-3.43958 -1.112149,-2.23162 -3.05532,-10.09468 -3.465438,-14.02292 -0.25643,-2.45617 0.970121,-11.0236 2.02652,-14.15521 0.62493,-1.85255 3.500396,-7.38833 5.222462,-10.05417 2.063533,-3.19444 6.41602,-7.57883 9.469337,-9.53876 1.529454,-0.98175 5.483651,-2.72422 8.687177,-3.8281 2.544873,-0.87693 6.746875,-1.28085 6.746875,-0.64855 0,0.20824 -0.446484,0.60757 -0.992187,0.88741 -1.187273,0.60884 -2.281166,1.72044 -2.132353,2.16688 0.08179,0.24538 2.985689,0.32966 12.265332,0.35599 13.999488,0.0397 14.738688,0.13348 18.908058,2.39811 2.8945,1.57218 4.52249,3.2914 6.16777,6.51338 1.55119,3.03774 2.03412,5.30688 2.02156,9.49885 -0.0124,4.14704 -1.04178,8.12181 -2.70656,10.45104 -2.2433,3.13869 -4.48505,4.86352 -7.99933,6.15483 -1.7577,0.64585 -2.17706,0.68605 -8.22906,0.78885 -7.631753,0.12963 -7.413909,0.20773 -7.15203,-2.56418 0.09008,-0.95352 0.164635,-2.58836 0.16567,-3.63299 0.0027,-2.75595 -0.04324,-2.73088 5.00644,-2.73088 4.92251,0 6.6245,-0.42191 8.29934,-2.05735 1.32592,-1.29473 2.13363,-3.8481 2.153,-6.80619 0.0121,-1.84345 -0.0945,-2.34634 -0.82533,-3.89593 -1.03127,-2.18653 -2.88029,-4.07452 -4.26148,-4.3513 -0.53756,-0.10772 -3.77535,-0.20117 -7.19509,-0.20765 l -6.217708,-0.0118 -0.06768,21.93516 c -0.04533,14.69104 -0.158503,22.04459 -0.342686,22.26652 -0.355697,0.42859 -2.007351,0.0111 -2.781683,-0.70308 -0.300421,-0.27709 -0.64081,-0.50381 -0.75642,-0.50381 -0.339601,0 -6.338898,-3.75803 -6.701007,-4.19759 -0.259148,-0.31457 -0.330729,-5.54435 -0.330729,-24.16339 0,-16.72791 -0.08396,-23.76194 -0.283615,-23.76194 -1.510194,0 -8.349523,7.00882 -11.489246,11.77396 -3.247428,4.92861 -5.621876,9.63976 -6.800935,13.49375 -2.881781,9.4197 -2.921939,9.68031 -2.809429,18.23264 0.08078,6.14025 0.130745,6.73743 0.666123,7.96111 0.765672,1.75006 1.738333,5.35924 1.533578,5.69054 -0.265822,0.43011 -0.797979,0.30089 -1.370223,-0.33272 z m 30.881465,-4.23334 c 0.0049,-0.1819 0.0017,-9.91526 -0.0072,-21.62968 -0.01445,-19.02412 0.02858,-21.36255 0.40291,-21.89428 0.40558,-0.57612 0.557187,-0.59509 4.703568,-0.58848 5.14546,0.008 9.16518,0.36465 10.21101,0.90547 1.12301,0.58072 2.62583,2.42313 3.53171,4.32973 0.76656,1.61338 0.7895,1.77076 0.67469,4.63021 -0.097,2.41535 -0.23107,3.17915 -0.72868,4.15068 -1.10664,2.16063 -1.6245,2.67984 -3.59173,3.6011 l -1.91503,0.89682 -4.19771,0.004 c -2.30874,0.002 -4.36658,0.11094 -4.57299,0.24159 -0.28415,0.17985 -0.400251,1.09266 -0.478087,3.75879 -0.09107,3.11957 -0.05004,3.55984 0.35971,3.85945 0.544867,0.39842 9.605067,0.46427 11.341577,0.0824 4.35173,-0.95688 6.17841,-1.83472 8.42886,-4.05058 3.58857,-3.53344 4.9253,-6.99783 4.92315,-12.75929 -0.002,-4.6314 -0.26862,-5.98892 -1.80539,-9.183 -1.75349,-3.64454 -2.9018,-4.85581 -6.22045,-6.56149 -4.10031,-2.10744 -4.7427,-2.18904 -18.205568,-2.31249 -8.142992,-0.0747 -11.71841,-0.0193 -12.104688,0.18742 l -0.548204,0.29339 v 23.50621 c 0,21.5315 0.03672,23.53672 0.437036,23.86934 0.24037,0.19972 2.115605,1.39418 4.167188,2.65436 3.525725,2.16567 5.172792,2.80247 5.194328,2.00824 z m 23.321108,3.95893 c -0.28905,-0.34829 -0.13499,-0.53853 1.06442,-1.31441 0.77131,-0.49896 1.93816,-1.21357 2.593,-1.58804 3.37773,-1.93152 9.17703,-7.77026 12.70559,-12.792 0.21521,-0.30628 1.06042,-1.43987 1.87825,-2.51909 1.60068,-2.1123 2.34426,-3.48265 4.78964,-8.82691 2.0743,-4.5333 2.28251,-5.23421 2.71249,-9.1315 0.20069,-1.81901 0.55776,-4.96844 0.79349,-6.99873 0.45383,-3.90867 0.41213,-4.8674 -0.41483,-9.53773 -0.28344,-1.60073 -0.6319,-3.57242 -0.77436,-4.38155 -0.31461,-1.78691 -0.32946,-2.62991 -0.0463,-2.62991 0.51952,0 1.94957,1.8767 2.72178,3.57188 2.58383,5.67213 3.73991,8.84771 4.33451,11.90625 0.77789,4.00132 1.04178,8.68515 0.70062,12.43542 -0.22808,2.50722 -0.49107,3.55187 -1.89829,7.54062 -0.89844,2.54662 -1.93116,5.21846 -2.29494,5.93744 -1.13509,2.24341 -6.34956,8.80712 -8.24374,10.37681 -3.18418,2.6387 -6.99714,4.99068 -9.48007,5.84767 -6.26813,2.16348 -10.43818,2.9509 -11.14123,2.10378 z m 17.33671,-28.13711 c -0.10204,-0.10204 -0.18553,-2.31077 -0.18553,-4.90828 0,-3.9633 -0.10466,-5.24324 -0.65081,-7.95955 -0.71003,-3.53139 -1.91899,-7.50971 -2.91331,-9.5868 -0.34831,-0.7276 -0.96724,-2.09682 -1.3754,-3.04271 -0.82168,-1.9042 -1.9806,-3.91827 -3.23672,-5.62507 -0.45407,-0.61699 -1.41089,-2.01477 -2.12626,-3.10618 -0.84761,-1.29317 -2.43633,-3.05119 -4.56106,-5.047106 -3.92224,-3.684447 -5.05776,-4.567936 -7.78509,-6.057201 -1.14944,-0.627655 -2.92333,-1.690473 -3.94198,-2.361817 -2.33635,-1.539783 -2.73344,-1.733768 -5.15938,-2.520441 -2.49836,-0.810159 -3.88782,-1.395528 -4.09036,-1.723234 -0.565068,-0.914306 3.58021,-1.01555 6.7362,-0.164525 0.80036,0.215822 2.46724,0.510066 3.70416,0.653876 2.97729,0.346152 6.1578,1.462274 10.29832,3.613943 7.25756,3.771477 11.96969,8.410564 15.97073,15.723175 2.31478,4.23065 3.89346,10.61858 3.89346,15.75437 0,7.41784 -2.95519,17.97933 -4.57697,16.35755 z m -77.973037,-21.9917 c 0,-0.59507 1.062033,-3.25243 1.828712,-4.5757 0.459979,-0.79391 2.052395,-2.92602 3.538702,-4.73801 2.357907,-2.87458 3.208272,-3.67715 6.671128,-6.29614 4.698854,-3.553798 5.689512,-4.146832 9.525,-5.701921 3.558858,-1.442929 6.5323,-2.201371 10.186459,-2.598281 2.847968,-0.309343 8.103196,-0.167339 9.789583,0.264529 4.022353,1.030085 8.205903,2.274524 8.985133,2.672716 1.15805,0.591773 6.48681,4.179402 8.54628,5.753847 0.83827,0.64085 2.16479,1.96093 2.94783,2.93352 0.78304,0.97259 1.92297,2.24459 2.53319,2.82668 1.03903,0.99112 2.12298,2.67438 2.12298,3.29675 0,0.59236 -1.19489,0.22685 -2.3442,-0.71707 -1.71885,-1.41167 -3.10896,-2.24821 -4.93184,-2.96787 -0.87312,-0.3447 -2.4946,-1.07645 -3.60327,-1.62611 -3.44321,-1.70707 -6.56879,-2.55454 -13.59464,-3.68606 -3.835066,-0.61765 -5.538068,-0.63739 -10.488932,-0.12163 -4.783617,0.49834 -4.751985,0.49198 -8.561073,1.72067 -1.74625,0.56328 -3.889375,1.22283 -4.7625,1.46566 -0.873125,0.24283 -2.420937,0.93587 -3.439583,1.54008 -2.80703,1.66498 -3.360701,1.97532 -4.352129,2.43935 -1.745883,0.81716 -3.598352,2.15243 -5.702038,4.11006 -2.763603,2.57173 -4.894792,4.31548 -4.894792,4.00493 z"
         id="path22" /><path
         style="fill:#1d3852"
         d="m 90.249834,160.09489 c -2.051583,-1.26018 -3.926818,-2.45464 -4.167188,-2.65436 -0.400321,-0.33262 -0.437036,-2.33784 -0.437036,-23.86934 v -23.50621 l 0.548204,-0.29339 c 0.386278,-0.20673 3.961696,-0.26209 12.104688,-0.18742 13.462868,0.12345 14.105258,0.20505 18.205568,2.31249 3.31865,1.70568 4.46696,2.91695 6.22045,6.56149 1.53677,3.19408 1.80366,4.5516 1.80539,9.183 0.002,5.76146 -1.33458,9.22585 -4.92315,12.75929 -2.25045,2.21586 -4.07713,3.0937 -8.42886,4.05058 -1.73651,0.38183 -10.79671,0.31598 -11.341577,-0.0824 -0.40975,-0.29961 -0.450784,-0.73988 -0.35971,-3.85945 0.07784,-2.66613 0.193937,-3.57894 0.478087,-3.75879 0.20641,-0.13065 2.26425,-0.23936 4.57299,-0.24159 l 4.19771,-0.004 1.91503,-0.89682 c 1.96723,-0.92126 2.48509,-1.44047 3.59173,-3.6011 0.49761,-0.97153 0.6317,-1.73533 0.72868,-4.15068 0.11481,-2.85945 0.0919,-3.01683 -0.67469,-4.63021 -0.90588,-1.9066 -2.4087,-3.74901 -3.53171,-4.32973 -1.04583,-0.54082 -5.06555,-0.89727 -10.21101,-0.90547 -4.146381,-0.007 -4.297988,0.0124 -4.703568,0.58848 -0.374327,0.53173 -0.41736,2.87016 -0.40291,21.89428 0.0089,11.71442 0.01214,21.44778 0.0072,21.62968 -0.02154,0.79423 -1.668603,0.15743 -5.194328,-2.00824 z"
         id="path21" /></g></g></svg>
